<?xml version="1.0" encoding="utf-8"?>
<!-- Generator: Adobe Illustrator 25.3.1, SVG Export Plug-In . SVG Version: 6.00 Build 0)  -->
<svg version="1.1" id="Calque_1" xmlns="http://www.w3.org/2000/svg" xmlns:xlink="http://www.w3.org/1999/xlink" x="0px" y="0px"
	 viewBox="0 0 275 495" style="enable-background:new 0 0 275 495;" xml:space="preserve">
<style type="text/css">
	.st0{fill:#5200FF;stroke:#FFFFFF;stroke-miterlimit:10;}
</style>
<path class="st0" d="M267.8,291.9c-7.2-6.2-17.2-4.2-20.8-3.5c-15.8,3.2-38.9,27.4-39.4,28.3c-5.6,8.6-5.2,15.5-12.5,19.4
	c-3.4,1.8-4.2,0.7-9.7,2.8c-10.3,3.9-12.9,10-15.9,9c-3.8-1.3-3.1-12.2-2.8-22.1c0.7-21.5-1.4-9.5-0.7-40.8
	c0.4-18.6,1.5-40-0.1-55.2c-0.5-4.7-1.2-9.1-1.2-9.1c-1.7-10.4-3.2-13.3-4.2-18.7c-1.7-9.9,1.4-30,2.1-46.1c0.2-4.3-0.1-28-0.7-38.5
	c-1.3-23.5-3.1-69.7-6.9-75.3c-3.3-4.8-6.3-6.3-8.3-6.9c-5.1-1.6-11.3,0.1-14.5,3.9c-0.7,14.8-5.8,94.4-6.3,104.4
	c-0.6,13.1-3.4,58.2-4.2,68.3c-1,24.9,0.5,36.1-4.2,56.7c-1.1,5.1-2.3,9.4-3.4,12.7v0c4.4-29.2,6.5-52.8,7.5-69.4
	c1.8-26.1,7-131.5,8.6-141.9c0.7-4.7,1.2-27.7,1.8-30.7c0,0,0,0,0-0.1c-0.1-6.2-0.5-28.5-11.4-32.8c-4-1.6-7.9-0.2-8.4,0
	c-6.7,2.5-9.3,10.8-10.7,15.4c-12.3,39.4-9.5,23.6-12.6,38.8c-6.7,33-4.4,91.2-9.8,114c-3.6,15-5.5,19-7.5,32.2
	c-2,13.5-1,15.9-3.3,29.4c-3,17.9-5.2,16-7.5,31.3c-2.4,16-1.3,26.7-7,29c-1.9,0.8-4.2,0.4-8.8-0.2c-5-0.7-5.7-4.7-10.3-5.4
	c-4.5-0.7-8-0.3-10.9,0c-0.8,0.1-8.2,1.8-11.5,3.4c-8.4,4-8.1,23.7-7.9,34.2c1,62.2,0.3,62.3,2.4,77.2c4.1,28,9.1,36,12.2,40.1
	c6.3,8.4,12.4,11.5,18.2,23.7c4.5,9.3,3.7,13.5,8.5,17.6c1.4,1.2,7.6,6.1,26.7,3c9.8-1.6,26.2-5.8,44.4-18.8l16.6-11.1
	c10.7-1.2,18.6-4.4,23.5-6.9c20.1-10.1,34.1-30,38.1-49.1c1.4-6.8,0.3-7.4,2.1-12.5c4-11.2,11.4-13.1,24.9-29.1
	c5.2-6.2,18.2-16.4,24.2-23.4c5.2-6.1,8.1-8.6,15.9-17.3c10.3-11.4,11.7-13.9,11.8-17.3C274.2,297.5,268.6,292.6,267.8,291.9z"/>
</svg>
