<?xml version="1.0" encoding="utf-8"?>
<!-- Generator: Adobe Illustrator 25.3.1, SVG Export Plug-In . SVG Version: 6.00 Build 0)  -->
<svg version="1.1" xmlns="http://www.w3.org/2000/svg" xmlns:xlink="http://www.w3.org/1999/xlink" x="0px" y="0px"
	 viewBox="0 0 595.3 511.2" style="enable-background:new 0 0 595.3 511.2;" xml:space="preserve">
<style type="text/css">
	.st0{display:none;}
	.st1{fill:#FFFFFF;stroke:#2D2D2E;}
	.st2{fill:#5200FF;}
	.st3{fill:#FFFFFF;}
	.st4{fill:#5200FF;stroke:#FFFFFF;stroke-width:0.5;stroke-miterlimit:10;}
	.st5{fill:#5200FF;stroke:#FFFFFF;stroke-width:0.75;stroke-miterlimit:10;}
	.st6{fill:#5200FF;stroke:#FFFFFF;stroke-miterlimit:10;}
</style>
<g id="Calque_1" class="st0">
	
		<image style="display:inline;overflow:visible;" width="852" height="1350" xlink:href="F2C757734233964E.png"  transform="matrix(0.5 0 0 0.5 -1145.7323 -88.678)">
	</image>
	
		<image style="display:inline;overflow:visible;" width="852" height="1350" xlink:href="F2C7577342339649.png"  transform="matrix(0.5 0 0 0.5 -1146.0944 -88.678)">
	</image>
</g>
<g id="Calque_3">
	<path class="st1" d="M-960.4,211.6c4.4,7.5,6.1,14.2,7.8,21.5c2.8,11.5,5.7,30.1,2.4,54.1c-0.5,4,0.3,6.8,1.5,8.8
		c6.2,10.8,30.6,11.4,60.9,1.8c1.1-3.8,2.2-7.7,3.3-11.5c-0.9-1.4-2.2-3.6-3.4-6.6c-5.3-13.5-0.7-27,4.7-42.3
		c2.3-6.4,5.9-15.4,11.7-25.7c17.6-17.5,31.3-32.8,41-44.1c20.8-24.3,24.9-32.3,27.3-37.9c7.1-16.6,7.6-30.5,8.3-50
		c0.7-20,1.4-38.5-6.8-60.7c-6.9-18.8-17.1-31.6-22.7-38.7c-4.7-5.8-13.4-16.6-27.3-26.5c-8.2-5.9-28.8-20.7-58.4-22.7
		c-42.4-2.9-72.8,22.6-81.1,29.6c-12.9,10.9-20.4,21.6-25.8,29.6c-8.6,12.6-23,38.2-24.6,76.6c-1.6,39,15.1,92.8,50,112.2
		C-982.9,183.9-970.9,193.6-960.4,211.6z"/>
	<path class="st2" d="M-444.1,171.6c6.8,11.6,9.4,21.9,12.1,33.3c4.3,17.8,8.8,46.6,3.7,83.7c-0.7,6.2,0.5,10.5,2.3,13.5
		c9.6,16.8,47.3,17.7,94.1,2.7c1.7-5.9,3.4-11.8,5.1-17.7c-1.4-2.1-3.4-5.6-5.2-10.1c-8.1-20.9-1.1-41.7,7.3-65.4
		c3.5-9.9,9.1-23.9,18-39.8c27.2-27,48.4-50.7,63.4-68.2C-211.3,66-205,53.7-201.2,45c11-25.6,11.8-47.1,12.9-77.4
		c1.1-31,2.1-59.5-10.6-93.8c-10.7-29-26.4-48.8-35.2-59.8c-7.2-9-20.8-25.6-42.2-41c-12.6-9.1-44.6-32-90.3-35.2
		c-65.6-4.5-112.6,34.9-125.4,45.7c-20,16.8-31.5,33.4-39.9,45.7c-13.3,19.5-35.6,59.1-38,118.5c-2.4,60.3,23.4,143.5,77.4,173.5
		C-479,128.7-460.5,143.7-444.1,171.6z"/>
</g>
<g id="Calque_4">
	<path class="st1" d="M-1017.5,65c8-6.1,23.6,2.6,28.9,5.5c21.9,12.1,31.5,36.6,35.4,49c-6.5,1.8-18.2,4.1-32.1,1.3
		c-9.3-1.8-26.3-5.2-34.4-19.8c-5.5-10-5.7-23-1-31.8C-1019.2,66.3-1017.9,65.3-1017.5,65z"/>
	<path class="st1" d="M-820.6,66.8c-8-6.1-23.6,2.6-28.9,5.5c-21.9,12.1-31.5,36.6-35.4,49c6.5,1.8,18.2,4.1,32.1,1.3
		c9.3-1.8,26.3-5.2,34.4-19.8c5.5-10,5.7-23,1-31.8C-818.9,68.2-820.2,67.1-820.6,66.8z"/>
	<path class="st1" d="M-927.6,141.9l0.7,20.8l-4.5-1l2.6-19.9C-928.6,141.1-927.7,141.2-927.6,141.9z"/>
	<path class="st1" d="M-908.2,141.9l-0.7,20.8l4.5-1l-2.6-19.9C-907.1,141.1-908.1,141.2-908.2,141.9z"/>
	<path class="st1" d="M-879.3,181.5l-37.9-0.7l0-0.1l-1,0l-1,0l0,0.1l-38.9,0.7c-0.7,0-0.8,1-0.1,1.2l39.9,2.6l0-0.2l0,0.2l38.9-2.6
		C-878.5,182.5-878.6,181.5-879.3,181.5z"/>
	<g>
		<path class="st3" d="M-532.5-55.1c12.4-9.4,36.4,4,44.7,8.5c33.8,18.7,48.8,56.7,54.7,75.8c-10,2.7-28.1,6.3-49.7,2
			c-14.4-2.9-40.7-8-53.2-30.6c-8.5-15.4-8.8-35.6-1.5-49.2C-535.2-53.1-533.2-54.7-532.5-55.1z"/>
		<path class="st3" d="M-228-52.3c-12.4-9.4-36.4,4-44.7,8.5c-33.8,18.7-48.8,56.7-54.7,75.8c10,2.7,28.1,6.3,49.7,2
			c14.4-2.9,40.7-8,53.2-30.6c8.5-15.4,8.8-35.6,1.5-49.2C-225.4-50.2-227.4-51.8-228-52.3z"/>
		<path class="st3" d="M-393.5,63.8l1.1,32.2l-7-1.5l4-30.8C-395.1,62.6-393.6,62.7-393.5,63.8z"/>
		<path class="st3" d="M-363.5,63.8l-1.1,32.2l7-1.5l-4-30.8C-361.9,62.6-363.4,62.7-363.5,63.8z"/>
		<path class="st3" d="M-318.8,125l-58.6-1l0-0.1l-1.5,0.1l-1.5-0.1l0,0.1l-60.1,1c-1.1,0.1-1.2,1.6-0.2,1.9l61.7,4l0.1-0.3l0.1,0.3
			l60.2-4C-317.6,126.6-317.7,125.1-318.8,125z"/>
	</g>
	<path class="st1" d="M-1385.9-124.5c-7.3,2.2-17.2,6.9-23.8,11.6c-5.3,3.7-10.5,8.6-10.5,8.6c-5.1,4.8-9.6,9.8-26.6,33.3
		C-1461-51.6-1466-43.7-1469-42c-0.2,0.1-1,0.6-1.1,1.3c-0.1,1.6,3.9,2.5,8.6,5.1c6.3,3.6,7,6.5,9.9,6.3c2.9-0.2,5-3.2,7.1-6.7
		c10.7-17.3,12.9-27.2,19-28.1c0.1,0,0,0,6.7,1c8.5,1.2,9.6,1.3,10.5,0.5c2.5-2.3-0.9-7.5,1.9-10.5c1.4-1.5,3.6-1.5,6.2-1.4
		c7.4,0.1,14.2,4.5,13.8,5.7c-0.3,0.8-3.6,0.7-3.8,0c-0.3-0.9,4.2-4,9-4.3c6.1-0.4,12.3,3.6,12.8,3.8c6.4-1.2,11.6-1.2,15.2-1
		c2.6,0.2,5.5,0.5,8.6,1c4,0.5,10,1.4,10,1.4c0,0-4.2-0.2-4.3-1c-0.1-0.9,5.4-2.5,10.9-2.9c4-0.3,4.2,0.3,7.1,0
		c5.7-0.6,6.5-3.1,11.9-4.8c1.8-0.5,2.1-0.4,16.7,0c8.2,0.2,10.2,0.2,10.2,0.5c0,0.5-5.3,1.3-5.5,0.9c-0.1-0.5,7-1,8.6-4.8
		c1.8-4.3-4.3-10.8-7.6-14.3c-7.6-8.1-15.5-12-16.2-12.4C-1326.4-118-1357.4-133.3-1385.9-124.5z"/>
</g>
<g id="Calque_5" class="st0">
	
		<image style="display:inline;overflow:visible;opacity:0.6;" width="2880" height="1522" xlink:href="F2C757734233964B.png"  transform="matrix(0.5 0 0 0.5 -1722.3236 -172.1229)">
	</image>
</g>
<g id="Calque_2">
	<path class="st1" d="M-771.8,295.4c-3.9-3.4-9.3-2.3-11.3-1.9c-8.6,1.7-21.1,14.9-21.4,15.3c-3,4.7-2.8,8.4-6.8,10.5
		c-1.8,1-2.3,0.4-5.3,1.5c-5.6,2.1-7,5.4-8.6,4.9c-2.1-0.7-1.7-6.6-1.5-12c0.4-11.7-0.7-5.2-0.4-22.1c0.2-10.1,0.8-21.7-0.1-30
		c-0.3-2.5-0.7-5-0.7-5c-0.9-5.6-1.7-7.2-2.3-10.1c-0.9-5.4,0.8-16.3,1.1-25c0.1-2.3-0.1-15.2-0.4-20.9c-0.7-12.7-1.7-16.1-3.8-19.1
		c-1.8-2.6-3.4-3.4-4.5-3.8c-2.8-0.8-6.2,0.1-7.9,2.1c-0.4,8-3.2,29.5-3.4,34.9c-0.3,7.1-1.9,31.6-2.3,37
		c-0.5,13.5,0.3,19.6-2.3,30.8c-0.6,2.8-1.3,5.1-1.8,6.9v0c2.4-15.8,3.5-28.7,4.1-37.7c1-14.1,2.6-50.1,3.5-55.8
		c0.4-2.6,1.9-14.6,2.2-16.2c0,0,0,0,0,0c-0.1-3.4-0.3-15.4-6.2-17.8c-2.1-0.8-4.3-0.1-4.6,0c-3.7,1.3-5,5.8-5.8,8.4
		c-6.7,21.4-5.2,12.8-6.8,21c-3.6,17.9-2.4,27.8-5.3,40.2c-1.9,8.1-3,10.3-4.1,17.5c-1.1,7.3-0.5,8.6-1.8,16
		c-1.6,9.7-2.8,8.7-4.1,17c-1.3,8.7-0.7,14.5-3.8,15.7c-1,0.4-2.3,0.2-4.8-0.1c-2.7-0.4-3.1-0.9-5.6-1.3c-2.4-0.4-4.3-0.2-5.9,0
		c-0.4,0-4.5,0.5-6.3,1.3c-4.6,2.2-4.4,11.8-4.3,17.5c0.5,33.8,0.1,33.8,1.3,41.9c2.2,15.2,4.9,19.5,6.6,21.8
		c3.4,4.6,6.7,6.2,9.9,12.9c2.4,5.1,2,7.3,4.6,9.6c0.8,0.7,4.1,3.3,14.5,1.6c5.3-0.9,14.2-3.2,24.1-10.2l9-6
		c5.8-0.7,10.1-2.4,12.8-3.8c10.9-5.5,18.5-16.2,20.6-26.7c0.8-3.7,0.1-4,1.1-6.8c2.2-6.1,6.2-7.1,13.5-15.8
		c2.8-3.3,9.9-8.9,13.1-12.7c2.8-3.3,4.4-4.7,8.6-9.4c5.6-6.2,6.3-7.5,6.4-9.4C-768.3,298.4-771.4,295.8-771.8,295.4z"/>
	<path class="st1" d="M-1062.9,295.4c3.9-3.4,9.3-2.3,11.3-1.9c8.6,1.7,21.1,14.9,21.4,15.3c3,4.7,2.8,8.4,6.8,10.5
		c1.8,1,2.3,0.4,5.3,1.5c5.6,2.1,7,5.4,8.6,4.9c2.1-0.7,1.7-6.6,1.5-12c-0.4-11.7,0.7-5.2,0.4-22.1c-0.2-10.1-0.8-21.7,0.1-30
		c0.3-2.5,0.7-5,0.7-5c0.9-5.6,1.7-7.2,2.3-10.1c0.9-5.4-0.8-16.3-1.1-25c-0.1-2.3,0.1-15.2,0.4-20.9c0.7-12.7,1.7-16.1,3.8-19.1
		c1.8-2.6,3.4-3.4,4.5-3.8c2.8-0.8,6.2,0.1,7.9,2.1c0.4,8,3.2,29.5,3.4,34.9c0.3,7.1,1.9,31.6,2.3,37c0.5,13.5-0.3,19.6,2.3,30.8
		c0.6,2.8,1.3,5.1,1.8,6.9v0c-2.4-15.8-3.5-28.7-4.1-37.7c-1-14.1-2.6-50.1-3.5-55.8c-0.4-2.6-1.9-14.6-2.2-16.2c0,0,0,0,0,0
		c0.1-3.4,0.3-15.4,6.2-17.8c2.1-0.8,4.3-0.1,4.6,0c3.7,1.3,5,5.8,5.8,8.4c6.7,21.4,5.2,12.8,6.8,21c3.6,17.9,2.4,27.8,5.3,40.2
		c1.9,8.1,3,10.3,4.1,17.5c1.1,7.3,0.5,8.6,1.8,16c1.6,9.7,2.8,8.7,4.1,17c1.3,8.7,0.7,14.5,3.8,15.7c1,0.4,2.3,0.2,4.8-0.1
		c2.7-0.4,3.1-0.9,5.6-1.3c2.4-0.4,4.3-0.2,5.9,0c0.4,0,4.5,0.5,6.3,1.3c4.6,2.2,4.4,11.8,4.3,17.5c-0.5,33.8-0.1,33.8-1.3,41.9
		c-2.2,15.2-4.9,19.5-6.6,21.8c-3.4,4.6-6.7,6.2-9.9,12.9c-2.4,5.1-2,7.3-4.6,9.6c-0.8,0.7-4.1,3.3-14.5,1.6
		c-5.3-0.9-14.2-3.2-24.1-10.2l-9-6c-5.8-0.7-10.1-2.4-12.8-3.8c-10.9-5.5-18.5-16.2-20.6-26.7c-0.8-3.7-0.1-4-1.1-6.8
		c-2.2-6.1-6.2-7.1-13.5-15.8c-2.8-3.3-9.9-8.9-13.1-12.7c-2.8-3.3-4.4-4.7-8.6-9.4c-5.6-6.2-6.3-7.5-6.4-9.4
		C-1066.4,298.4-1063.4,295.8-1062.9,295.4z"/>
	<path class="st4" d="M-152.6,301.2c-6.1-5.2-14.4-3.5-17.4-2.9c-13.2,2.7-32.6,23-33.1,23.7c-4.7,7.3-4.3,13-10.4,16.3
		c-2.9,1.5-3.5,0.6-8.1,2.3c-8.6,3.3-10.8,8.4-13.4,7.5c-3.2-1.1-2.6-10.2-2.3-18.6c0.6-18-1.2-8-0.6-34.2
		c0.3-15.6,1.3-33.6-0.1-46.3c-0.4-3.9-1-7.7-1-7.7c-1.4-8.7-2.7-11.2-3.5-15.7c-1.4-8.3,1.2-25.1,1.7-38.7
		c0.2-3.6-0.1-23.5-0.6-32.3c-1.1-19.7-2.6-24.9-5.8-29.6c-2.8-4-5.3-5.3-7-5.8c-4.3-1.3-9.5,0.1-12.1,3.3
		c-0.6,12.4-4.9,45.6-5.3,54c-0.5,10.9-2.9,48.8-3.5,57.3c-0.8,20.9,0.4,30.3-3.5,47.6c-1,4.3-2,7.9-2.8,10.6v0
		c3.7-24.5,5.4-44.3,6.3-58.2c1.5-21.9,4-77.5,5.3-86.2c0.6-4,2.9-22.5,3.4-25c0,0,0,0,0-0.1c-0.1-5.2-0.5-23.9-9.6-27.5
		c-3.3-1.3-6.6-0.2-7.1,0c-5.7,2.1-7.8,9-9,12.9c-10.3,33.1-8,19.8-10.6,32.5c-5.6,27.6-3.7,43-8.2,62.1c-3,12.6-4.6,15.9-6.3,27
		c-1.7,11.3-0.8,13.3-2.7,24.7c-2.5,15-4.3,13.4-6.3,26.3c-2,13.4-1.1,22.4-5.9,24.3c-1.6,0.6-3.5,0.4-7.4-0.2
		c-4.2-0.6-4.8-1.5-8.7-2c-3.7-0.6-6.7-0.3-9.2,0c-0.7,0.1-6.9,0.7-9.7,2c-7,3.4-6.8,18.2-6.6,27c0.8,52.2,0.2,52.2,2,64.7
		c3.4,23.5,7.6,30.2,10.2,33.6c5.2,7.1,10.4,9.6,15.3,19.9c3.7,7.8,3.1,11.3,7.1,14.8c1.2,1,6.4,5.1,22.4,2.5
		c8.2-1.3,22-4.9,37.2-15.8l13.9-9.3c8.9-1,15.6-3.7,19.7-5.8c16.9-8.5,28.6-25.1,31.9-41.2c1.2-5.7,0.2-6.2,1.7-10.4
		c3.4-9.4,9.5-11,20.9-24.4c4.4-5.2,15.3-13.8,20.3-19.7c4.4-5.1,6.8-7.2,13.4-14.5c8.6-9.5,9.8-11.7,9.9-14.5
		C-147.3,305.9-151.9,301.8-152.6,301.2z"/>
	<path class="st4" d="M-602.8,301.2c6.1-5.2,14.4-3.5,17.4-2.9c13.2,2.7,32.6,23,33.1,23.7c4.7,7.3,4.3,13,10.4,16.3
		c2.9,1.5,3.5,0.6,8.1,2.3c8.6,3.3,10.8,8.4,13.4,7.5c3.2-1.1,2.6-10.2,2.3-18.6c-0.6-18,1.2-8,0.6-34.2
		c-0.3-15.6-1.3-33.6,0.1-46.3c0.4-3.9,1-7.7,1-7.7c1.4-8.7,2.7-11.2,3.5-15.7c1.4-8.3-1.2-25.1-1.7-38.7
		c-0.2-3.6,0.1-23.5,0.6-32.3c1.1-19.7,2.6-24.9,5.8-29.6c2.8-4,5.3-5.3,7-5.8c4.3-1.3,9.5,0.1,12.1,3.3c0.6,12.4,4.9,45.6,5.3,54
		c0.5,10.9,2.9,48.8,3.5,57.3c0.8,20.9-0.4,30.3,3.5,47.6c1,4.3,2,7.9,2.8,10.6v0c-3.7-24.5-5.4-44.3-6.3-58.2
		c-1.5-21.9-4-77.5-5.3-86.2c-0.6-4-2.9-22.5-3.4-25c0,0,0,0,0-0.1c0.1-5.2,0.5-23.9,9.6-27.5c3.3-1.3,6.6-0.2,7.1,0
		c5.7,2.1,7.8,9,9,12.9c10.3,33.1,8,19.8,10.6,32.5c5.6,27.6,3.7,43,8.2,62.1c3,12.6,4.6,15.9,6.3,27c1.7,11.3,0.8,13.3,2.7,24.7
		c2.5,15,4.3,13.4,6.3,26.3c2,13.4,1.1,22.4,5.9,24.3c1.6,0.6,3.5,0.4,7.4-0.2c4.2-0.6,4.8-1.5,8.7-2c3.7-0.6,6.7-0.3,9.2,0
		c0.7,0.1,6.9,0.7,9.7,2c7,3.4,6.8,18.2,6.6,27c-0.8,52.2-0.2,52.2-2,64.7c-3.4,23.5-7.6,30.2-10.2,33.6
		c-5.2,7.1-10.4,9.6-15.3,19.9c-3.7,7.8-3.1,11.3-7.1,14.8c-1.2,1-6.4,5.1-22.4,2.5c-8.2-1.3-22-4.9-37.2-15.8l-13.9-9.3
		c-8.9-1-15.6-3.7-19.7-5.8c-16.9-8.5-28.6-25.1-31.9-41.2c-1.2-5.7-0.2-6.2-1.7-10.4c-3.4-9.4-9.5-11-20.9-24.4
		c-4.4-5.2-15.3-13.8-20.3-19.7c-4.4-5.1-6.8-7.2-13.4-14.5c-8.6-9.5-9.8-11.7-9.9-14.5C-608.1,305.9-603.4,301.8-602.8,301.2z"/>
	<path class="st5" d="M563,298.7c-7.2-6.2-17.2-4.2-20.8-3.5c-15.8,3.2-38.9,27.4-39.4,28.3c-5.6,8.6-5.2,15.5-12.5,19.4
		c-3.4,1.8-4.2,0.7-9.7,2.8c-10.3,3.9-12.9,10-15.9,9c-3.8-1.3-3.1-12.2-2.8-22.1c0.7-21.5-1.4-9.5-0.7-40.8
		c0.4-18.6,1.5-40-0.1-55.2c-0.5-4.7-1.2-9.1-1.2-9.1c-1.7-10.4-3.2-13.3-4.2-18.7c-1.7-9.9,1.4-30,2.1-46.1
		c0.2-4.3-0.1-28-0.7-38.5c-1.3-23.5-3.1-69.7-6.9-75.3c-3.3-4.8-6.3-6.3-8.3-6.9c-5.1-1.6-11.3,0.1-14.5,3.9
		c-0.7,14.8-5.8,94.4-6.3,104.4c-0.6,13.1-3.4,58.2-4.2,68.3c-1,24.9,0.5,36.1-4.2,56.7c-1.1,5.1-2.3,9.4-3.4,12.7v0
		c4.4-29.2,6.5-52.8,7.5-69.4c1.8-26.1,7.1-132.5,8.7-142.9c0.7-4.7,1.2-26.7,1.7-29.7c0,0,0,0,0-0.1c-0.1-6.2-0.5-28.5-11.4-32.8
		c-4-1.6-7.9-0.2-8.4,0c-6.7,2.5-9.3,10.8-10.7,15.4c-12.3,39.4-9.5,23.6-12.6,38.8c-6.7,33-4.4,91.2-9.8,114
		c-3.6,15-5.5,19-7.5,32.2c-2,13.5-1,15.9-3.3,29.4c-3,17.9-5.2,16-7.5,31.3c-2.4,16-1.3,26.7-7,29c-1.9,0.8-4.2,0.4-8.8-0.2
		c-5-0.7-5.7-1.7-10.3-2.4c-4.5-0.7-8-0.3-10.9,0c-0.8,0.1-8.2,0.8-11.5,2.4c-8.4,4-8.1,21.7-7.9,32.2c1,62.2,0.3,62.3,2.4,77.2
		c4.1,28,9.1,36,12.2,40.1c6.3,8.4,12.4,11.5,18.2,23.7c4.5,9.3,3.7,13.5,8.5,17.6c1.4,1.2,7.6,6.1,26.7,3
		c9.8-1.6,26.2-5.8,44.4-18.8l16.6-11.1c10.7-1.2,18.6-4.4,23.5-6.9c20.1-10.1,34.1-30,38.1-49.1c1.4-6.8,0.3-7.4,2.1-12.5
		c4-11.2,11.4-13.1,24.9-29.1c5.2-6.2,18.2-16.4,24.2-23.4c5.2-6.1,8.1-8.6,15.9-17.3c10.3-11.4,11.7-13.9,11.8-17.3
		C569.3,304.3,563.8,299.4,563,298.7z"/>
	<path class="st6" d="M26.3,298.7c7.2-6.2,17.2-4.2,20.8-3.5c15.8,3.2,38.9,27.4,39.4,28.3c5.6,8.6,5.2,15.5,12.5,19.4
		c3.4,1.8,4.2,0.7,9.7,2.8c10.3,3.9,12.9,10,15.9,9c3.8-1.3,3.1-12.2,2.8-22.1c-0.7-21.5,1.4-9.5,0.7-40.8
		c-0.4-18.6-1.5-40,0.1-55.2c0.5-4.7,1.2-9.1,1.2-9.1c1.7-10.4,3.2-13.3,4.2-18.7c1.7-9.9-1.4-30-2.1-46.1c-0.2-4.3,0.1-28,0.7-38.5
		c1.3-23.5,3.1-69.7,6.9-75.3c3.3-4.8,6.3-6.3,8.3-6.9c5.1-1.6,11.3,0.1,14.5,3.9c0.7,14.8,5.8,94.4,6.3,104.4
		c0.6,13.1,3.4,58.2,4.2,68.3c1,24.9-0.5,36.1,4.2,56.7c1.1,5.1,2.3,9.4,3.4,12.7v0c-4.4-29.2-6.5-52.8-7.5-69.4
		c-1.8-26.1-7-131.5-8.6-141.9c-0.7-4.7-1.2-27.7-1.8-30.7c0,0,0,0,0-0.1c0.1-6.2,0.5-28.5,11.4-32.8c4-1.6,7.9-0.2,8.4,0
		c6.7,2.5,9.3,10.8,10.7,15.4c12.3,39.4,9.5,23.6,12.6,38.8c6.7,33,4.4,91.2,9.8,114c3.6,15,5.5,19,7.5,32.2c2,13.5,1,15.9,3.3,29.4
		c3,17.9,5.2,16,7.5,31.3c2.4,16,1.3,26.7,7,29c1.9,0.8,4.2,0.4,8.8-0.2c5-0.7,5.7-4.7,10.3-5.4c4.5-0.7,8-0.3,10.9,0
		c0.8,0.1,8.2,1.8,11.5,3.4c8.4,4,8.1,23.7,7.9,34.2c-1,62.2-0.3,62.3-2.4,77.2c-4.1,28-9.1,36-12.2,40.1
		c-6.3,8.4-12.4,11.5-18.2,23.7c-4.5,9.3-3.7,13.5-8.5,17.6c-1.4,1.2-7.6,6.1-26.7,3c-9.8-1.6-26.2-5.8-44.4-18.8l-16.6-11.1
		c-10.7-1.2-18.6-4.4-23.5-6.9c-20.1-10.1-34.1-30-38.1-49.1c-1.4-6.8-0.3-7.4-2.1-12.5c-4-11.2-11.4-13.1-24.9-29.1
		c-5.2-6.2-18.2-16.4-24.2-23.4c-5.2-6.1-8.1-8.6-15.9-17.3c-10.3-11.4-11.7-13.9-11.8-17.3C19.9,304.3,25.5,299.4,26.3,298.7z"/>
</g>
</svg>
